<?xml version="1.0" standalone="no"?>
<!DOCTYPE svg PUBLIC "-//W3C//DTD SVG 20010904//EN"
 "http://www.w3.org/TR/2001/REC-SVG-20010904/DTD/svg10.dtd">
<svg version="1.0" xmlns="http://www.w3.org/2000/svg"
 width="612.000000pt" height="612.000000pt" viewBox="0 0 612.000000 612.000000"
 preserveAspectRatio="xMidYMid meet">
<metadata>
Created by potrace 1.14, written by Peter Selinger 2001-2017
</metadata>
<g transform="translate(0.000000,612.000000) scale(0.100000,-0.100000)"
fill="#000000" stroke="none">
<path d="M2859 4956 c-2 -2 -51 -12 -109 -21 -197 -32 -354 -82 -525 -168 -55
-27 -110 -55 -122 -61 -13 -6 -23 -14 -23 -18 0 -5 -7 -8 -15 -8 -8 0 -15 -4
-15 -8 0 -4 -16 -14 -35 -21 -19 -7 -35 -16 -35 -21 0 -5 -6 -10 -13 -12 -8
-2 -34 -19 -58 -38 -48 -38 -229 -215 -229 -224 0 -3 -12 -18 -26 -33 -24 -26
-105 -128 -162 -207 -35 -48 -123 -225 -138 -275 -7 -25 -26 -80 -42 -121 -58
-145 -91 -346 -92 -555 0 -296 64 -565 200 -836 215 -430 631 -773 1095 -902
599 -168 1211 -34 1685 369 47 39 98 86 114 103 16 16 34 28 39 24 6 -4 7 -1
2 6 -4 8 7 28 32 54 22 23 52 60 68 82 16 22 33 45 38 50 4 6 30 46 57 89 110
176 192 382 237 594 25 117 27 146 28 357 0 201 -3 244 -23 344 -96 475 -362
883 -745 1143 -74 50 -325 178 -349 178 -10 0 -18 5 -18 10 0 6 -8 10 -17 10
-10 1 -36 8 -58 16 -71 26 -188 55 -275 70 -47 7 -105 18 -130 23 -43 10 -332
15 -341 7z m-239 -136 c0 -5 -19 -9 -42 -9 -40 1 -41 2 -13 9 44 11 55 11 55
0z m-264 -79 c-10 -11 -45 -29 -79 -42 -34 -12 -70 -28 -80 -35 -27 -18 -4
-27 38 -15 36 10 52 -4 18 -15 -43 -13 -82 -38 -86 -55 -3 -10 -13 -19 -24
-19 -17 1 -17 1 1 15 21 16 5 21 -22 6 -25 -13 -92 -23 -92 -14 0 4 23 21 51
36 28 16 53 35 56 43 3 8 11 14 19 14 8 0 14 4 14 8 0 5 17 17 38 26 118 56
138 64 151 65 11 1 10 -3 -3 -18z m-343 -222 c9 0 17 -7 17 -16 0 -10 -6 -14
-19 -10 -14 3 -17 0 -14 -13 3 -11 -3 -19 -17 -23 -12 -3 -19 -10 -16 -16 4
-5 1 -13 -5 -17 -7 -4 -9 -3 -6 3 4 6 -4 13 -19 16 -18 3 -22 1 -15 -6 15 -15
14 -27 -2 -27 -8 0 -22 -9 -33 -21 -16 -17 -16 -22 -4 -30 11 -7 7 -8 -13 -3
-27 6 -28 5 -22 -22 5 -22 4 -25 -4 -14 -9 13 -17 9 -48 -25 -54 -57 -103
-121 -103 -134 0 -6 -5 -10 -11 -9 -7 2 -15 -10 -20 -25 -4 -16 -19 -39 -33
-52 -14 -13 -26 -30 -26 -38 0 -8 -9 -22 -19 -31 -11 -10 -23 -31 -26 -46 -3
-16 -13 -34 -21 -41 -8 -6 -14 -21 -14 -34 0 -12 -9 -30 -19 -39 -11 -10 -22
-28 -25 -42 -4 -13 -13 -24 -20 -24 -8 0 -17 -11 -20 -25 -4 -14 -16 -40 -27
-58 l-20 -32 4 40 c16 143 158 414 309 590 60 70 166 175 177 175 5 0 23 14
41 31 23 24 36 30 53 24 12 -4 30 -7 40 -6z m1285 -576 c6 -10 12 -121 14
-248 4 -214 6 -232 26 -265 12 -19 22 -31 22 -26 0 4 11 1 25 -8 14 -10 34
-15 43 -12 9 3 118 7 242 10 l226 5 17 -28 c15 -25 17 -61 17 -265 0 -263 5
-247 -75 -259 -22 -4 -145 -7 -273 -7 l-232 -1 -15 -30 c-13 -25 -15 -63 -11
-232 2 -111 7 -229 11 -262 6 -59 6 -60 -24 -78 -27 -16 -58 -17 -284 -17
l-255 1 -33 30 c-18 16 -27 29 -20 29 9 0 11 49 9 205 -2 113 0 205 5 205 4 0
7 7 7 15 0 8 -4 15 -10 15 -22 0 -8 19 17 22 14 2 28 9 31 16 2 7 -2 11 -10
10 -7 -2 -12 3 -10 11 4 22 -8 49 -26 57 -9 4 -125 10 -258 13 -187 5 -245 9
-258 20 -14 12 -17 29 -15 87 1 45 -3 79 -10 88 -10 11 -7 17 11 31 15 11 19
19 11 22 -7 3 -13 13 -13 23 0 10 -9 25 -20 33 -11 8 -22 23 -24 34 -4 16 1
18 30 15 19 -2 37 -8 40 -13 6 -10 34 14 34 30 0 5 9 13 20 16 11 3 20 15 20
26 0 12 7 19 19 19 10 0 24 7 32 16 10 13 10 17 -1 24 -11 7 -8 10 11 14 34 7
267 26 313 26 53 0 101 34 115 80 10 34 13 68 31 300 5 63 9 117 9 119 1 2 8
-2 16 -9 12 -10 16 -8 24 11 l10 24 0 -22 c1 -26 11 -29 29 -11 17 17 15 28
-5 29 -10 0 -2 5 17 11 45 13 47 15 24 33 -16 12 -17 14 -2 15 9 0 19 -6 22
-12 3 -9 11 -6 23 9 17 21 26 22 160 23 126 0 143 -2 151 -17z m-978 -633 c0
-5 -4 -10 -10 -10 -5 0 -10 5 -10 10 0 6 5 10 10 10 6 0 10 -4 10 -10z m-30
-17 c7 -6 -23 -23 -42 -23 -11 0 -18 8 -18 20 0 17 4 19 28 14 15 -4 29 -9 32
-11z m-80 -8 c0 -8 -7 -15 -15 -15 -16 0 -20 12 -8 23 11 12 23 8 23 -8z m47
-41 c-3 -3 -12 -4 -19 -1 -8 3 -5 6 6 6 11 1 17 -2 13 -5z m-17 -29 c0 -8 -4
-15 -10 -15 -5 0 -10 7 -10 15 0 8 5 15 10 15 6 0 10 -7 10 -15z m1127 -957
c-3 -8 -6 -5 -6 6 -1 11 2 17 5 13 3 -3 4 -12 1 -19z"/>
<path d="M2719 886 c-3 -3 -60 -6 -128 -7 -67 0 -195 -10 -284 -20 -221 -25
-227 -27 -227 -48 0 -34 90 -50 415 -76 212 -16 924 -20 1090 -5 61 5 137 12
170 15 138 11 266 33 299 52 16 9 16 11 -6 25 -13 9 -49 18 -79 21 -30 3 -99
11 -154 17 -55 6 -163 15 -240 19 -158 9 -848 14 -856 7z"/>
</g>
</svg>
